#!OML:ASF F:\VICON\USERDATA\INSTALL\rory3\rory3.ASF
:FULLY-SPECIFIED
:DEGREES
89
root 2.95018 16.7223 -0.0374383 15.1376 4.71875 10.9475
lowerback -6.90799 1.66775 0.568908
upperback -2.06729 2.37976 -7.27612
thorax 2.06972 1.21197 -7.74644
lowerneck -2.73082 14.8318 4.9028
upperneck 47.0934 24.7096 -1.87734
head 19.8372 10.7218 2.40585
rclavicle -2.48481e-014 4.05521e-014
rhumerus -36.1275 6.01454 -94.5977
rradius 42.9037
rwrist -37.3517
rhand -12.2334 -49.532
rfingers 7.12502
rthumb 13.8321 -79.0521
lclavicle -2.48481e-014 4.05521e-014
lhumerus -27.9011 -20.3855 82.5069
lradius 41.6794
lwrist 72.5887
lhand -36.7349 -14.8113
lfingers 7.12502
lthumb -9.81886 14.9397
rfemur -50.8053 24.1047 -6.52371
rtibia 73.8581
rfoot 3.27193 10.4623
rtoes -41.0042
lfemur -32.1672 -6.36576 -36.3178
ltibia 38.5029
lfoot -16.9474 10.72
ltoes 4.04163
90
root 2.95403 16.7549 -0.00993877 14.1319 6.13729 11.3207
lowerback -6.25453 1.15596 0.458008
upperback -1.57724 1.70608 -7.25954
thorax 2.11634 0.882171 -7.73263
lowerneck -2.69956 14.843 4.97978
upperneck 47.0776 24.7582 -1.97692
head 19.8653 10.7409 2.35975
rclavicle -3.42904e-014 3.97569e-015
rhumerus -36.069 6.11173 -94.6159
rradius 42.8467
rwrist -37.3812
rhand -12.2655 -49.3152
rfingers 7.12502
rthumb 13.8011 -78.8374
lclavicle -3.42904e-014 3.97569e-015
lhumerus -27.8985 -20.2737 82.4768
lradius 41.7091
lwrist 72.5791
lhand -36.8019 -15.1064
lfingers 7.12502
lthumb -9.88357 14.6416
rfemur -48.3425 23.7074 -5.61332
rtibia 73.6683
rfoot 2.76433 9.95414
rtoes -41.4677
lfemur -30.5533 -7.19643 -36.5022
ltibia 38.3619
lfoot -17.1964 10.3486
ltoes 5.14041
91
root 2.9617 16.733 -0.0334677 14.9947 4.67381 10.8097
lowerback -6.92653 1.67394 0.786646
upperback -2.0066 2.37661 -7.25729
thorax 2.15062 1.21386 -7.8526
lowerneck -2.65881 14.853 5.05909
upperneck 47.0407 24.806 -2.08498
head 19.8789 10.7619 2.3069
rclavicle -2.79292e-014 -1.82882e-014
rhumerus -36.0383 6.13146 -94.6145
rradius 42.8566
rwrist -37.3635
rhand -12.1352 -49.7751
rfingers 7.12502
rthumb 13.9268 -79.2887
lclavicle -2.79292e-014 -1.82882e-014
lhumerus -27.8906 -20.2508 82.4602
lradius 41.6638
lwrist 72.6032
lhand -36.7231 -15.5726
lfingers 7.12502
lthumb -9.80751 14.179
rfemur -50.5465 24.2636 -6.35899
rtibia 73.7188
rfoot 3.17442 10.4732
rtoes -41.6153
lfemur -32.0557 -6.4939 -36.1531
ltibia 38.4994
lfoot -17.2005 10.5628
ltoes 6.95464
92
root 2.96097 16.7293 -0.0373594 14.9824 4.70869 10.6966
lowerback -6.8374 1.6684 0.900899
upperback -2.03137 2.35634 -7.23001
thorax 2.07543 1.20193 -7.89361
lowerneck -2.68487 14.8498 5.06484
upperneck 47.0627 24.8155 -2.10117
head 19.9081 10.7606 2.30643
rclavicle 2.58917e-014 -2.78299e-015
rhumerus -36.0436 6.13453 -94.6289
rradius 42.8662
rwrist -37.3624
rhand -12.0611 -50.0036
rfingers 7.12502
rthumb 13.9981 -79.5123
lclavicle 2.58917e-014 -2.78299e-015
lhumerus -27.8412 -20.2217 82.4449
lradius 41.548
lwrist 72.6259
lhand -36.5318 -15.8833
lfingers 7.12502
lthumb -9.62297 13.8769
rfemur -50.5741 24.2409 -6.22055
rtibia 73.701
rfoot 3.19205 10.5299
rtoes -41.7783
lfemur -32.0663 -6.45583 -36.0391
ltibia 38.5478
lfoot -17.1405 10.5855
ltoes 6.11094
93
root 2.9618 16.7325 -0.0390123 14.9797 4.73973 10.5755
lowerback -6.85181 1.64041 1.00076
upperback -2.00393 2.31249 -7.18662
thorax 2.10771 1.18112 -7.90843
lowerneck -2.74415 14.8544 5.08076
upperneck 47.0375 24.8476 -2.17542
head 19.9324 10.762 2.28454
rclavicle -8.24956e-015 5.00937e-014
rhumerus -35.9783 6.23339 -94.671
rradius 42.8376
rwrist -37.4017
rhand -12.1525 -49.6815
rfingers 7.12502
rthumb 13.9101 -79.1963
lclavicle -8.24956e-015 5.00937e-014
lhumerus -27.8181 -20.106 82.3983
lradius 41.5824
lwrist 72.5721
lhand -36.4949 -15.6828
lfingers 7.12502
lthumb -9.58728 14.079
rfemur -50.5928 24.2791 -6.10082
rtibia 73.6775
rfoot 3.43587 10.4045
rtoes -41.1211
lfemur -32.1667 -6.38665 -35.9244
ltibia 38.7576
lfoot -17.1986 10.6116
ltoes 5.21779
94
root 2.96329 16.7401 -0.0401162 14.9637 4.74409 10.5035
lowerback -6.89739 1.60073 1.02529
upperback -1.96995 2.25934 -7.14914
thorax 2.16019 1.15587 -7.88593
lowerneck -2.71072 14.8583 5.14217
upperneck 46.9436 24.8852 -2.32298
head 19.914 10.7736 2.21057
rclavicle 3.42904e-015 -4.17448e-014
rhumerus -35.9509 6.33644 -94.7164
rradius 42.8525
rwrist -37.4007
rhand -12.2243 -49.5505
rfingers 7.12502
rthumb 13.8408 -79.07
lclavicle 3.42904e-015 -4.17448e-014
lhumerus -27.9196 -19.9991 82.3436
lradius 41.7659
lwrist 72.6354
lhand -36.6085 -15.2955
lfingers 7.12502
lthumb -9.69688 14.4612
rfemur -50.5484 24.3324 -6.02601
rtibia 73.6118
rfoot 3.53921 10.2947
rtoes -40.8443
lfemur -32.1978 -6.42424 -35.8171
ltibia 38.7636
lfoot -17.3269 10.476
ltoes 6.68825
95
root 2.96532 16.7424 -0.0450888 14.9255 4.76097 10.5131
lowerback -6.82367 1.57321 1.01782
upperback -1.95796 2.22145 -7.15151
thorax 2.1258 1.13624 -7.88902
lowerneck -2.75441 14.8605 5.0837
upperneck 46.9495 24.8636 -2.25794
head 19.8972 10.7609 2.24546
rclavicle -1.23246e-014 -1.39149e-014
rhumerus -35.9075 6.25055 -94.6498
rradius 42.7962
rwrist -36.9546
rhand -11.4253 -50.0621
rfingers 7.12502
rthumb 14.6108 -79.5274
lclavicle -1.23246e-014 -1.39149e-014
lhumerus -27.9082 -19.8969 82.302
lradius 41.7796
lwrist 72.6831
lhand -36.5593 -15.186
lfingers 7.12502
lthumb -9.64943 14.573
rfemur -50.4818 24.3043 -6.01308
rtibia 73.5872
rfoot 3.47808 10.4102
rtoes -41.0776
lfemur -32.1769 -6.49899 -35.8066
ltibia 38.731
lfoot -17.3475 10.4113
ltoes 7.64776
